inDegrees=no
num_controls=7
num_derivatives=13
num_iterations=19
num_multipliers=7
num_parameters=0
num_slacks=7
num_states=26
objective=0.469938
objective_accelerations=0.002408
objective_balance=0.012120
objective_effort=0.014808
objective_height=0.438678
objective_ligament=0.001925
solver_duration=261.744132
status=Solve_Succeeded
success=true
DataType=double
version=3
OpenSimVersion=4.5
endheader
time	/jointset/ground_pelvis/pelvis_tilt/value	/jointset/ground_pelvis/pelvis_tx/value	/jointset/ground_pelvis/pelvis_ty/value	/jointset/hip_l/hip_flexion_l/value	/jointset/hip_l/hip_adduction_l/value	/jointset/hip_l/hip_rotation_l/value	/jointset/back/lumbar_extension/value	/jointset/patellofemoral_l/patellar_flexion_l/value	/jointset/knee_l/knee_flexion_l/value	/jointset/knee_l/knee_adduction_l/value	/jointset/knee_l/knee_rotation_l/value	/jointset/ankle_l/ankle_angle_l/value	/jointset/subtalar_l/subtalar_angle_l/value	/jointset/ground_pelvis/pelvis_tilt/speed	/jointset/ground_pelvis/pelvis_tx/speed	/jointset/ground_pelvis/pelvis_ty/speed	/jointset/hip_l/hip_flexion_l/speed	/jointset/hip_l/hip_adduction_l/speed	/jointset/hip_l/hip_rotation_l/speed	/jointset/back/lumbar_extension/speed	/jointset/patellofemoral_l/patellar_flexion_l/speed	/jointset/knee_l/knee_flexion_l/speed	/jointset/knee_l/knee_adduction_l/speed	/jointset/knee_l/knee_rotation_l/speed	/jointset/ankle_l/ankle_angle_l/speed	/jointset/subtalar_l/subtalar_angle_l/speed	/forceset/tau_hip_flexion_l	/forceset/tau_hip_adduction_l	/forceset/tau_hip_rotation_l	/forceset/tau_knee_flexion_l	/forceset/tau_ankle_angle_l	/forceset/tau_subtalar_angle_l	/forceset/tau_lumbar_extension	lambda_cid13_p0	lambda_cid13_p1	lambda_cid13_p2	lambda_cid13_p3	lambda_cid13_p4	lambda_cid13_p5	lambda_cid14_p0	/jointset/ground_pelvis/pelvis_tilt/accel	/jointset/ground_pelvis/pelvis_tx/accel	/jointset/ground_pelvis/pelvis_ty/accel	/jointset/hip_l/hip_flexion_l/accel	/jointset/hip_l/hip_adduction_l/accel	/jointset/hip_l/hip_rotation_l/accel	/jointset/back/lumbar_extension/accel	/jointset/patellofemoral_l/patellar_flexion_l/accel	/jointset/knee_l/knee_flexion_l/accel	/jointset/knee_l/knee_adduction_l/accel	/jointset/knee_l/knee_rotation_l/accel	/jointset/ankle_l/ankle_angle_l/accel	/jointset/subtalar_l/subtalar_angle_l/accel	gamma_cid13_p0	gamma_cid13_p1	gamma_cid13_p2	gamma_cid13_p3	gamma_cid13_p4	gamma_cid13_p5	gamma_cid14_p0
0	-0.1161974574111511	0.03754341579950359	0.9041420467314466	0.3774924667018715	-0.1523705788677812	-0.09952946950638906	-0.01265067647494873	0.03223648243709165	0.03223648243721463	0.05104237578647013	-0.01066450132504543	-0.04231377076293093	0.09414377505642083	0	0	0	0	0	0	0	0	0	0	0	0	0	0.193077686216666	-0.02050958780135895	0.01664387667747181	-0.2351458098218152	0.2146802883818484	-0.03935920010313249	-0.1694361877461906	34.38836023504365	18.1751309484946	-11.4128901516113	27.16577420381525	-451.6183227262387	-11.1623211159301	-34.39654917083057	12.03154554808873	-4.985418371169046	-2.003094892052426	17.97624432057795	-18.49991383937178	8.32884226778409	-34.33471372626053	47.19295059131452	47.19295059131453	-30.90898816087696	2.707682289637567	15.09480726632308	-14.08769750010675	9.914328797596449e-07	-5.308482778018381e-05	6.741115385902374e-05	-1.329046924347062e-05	4.149202865989879e-05	-5.457529881052337e-05	-7.84079700175357e-06
0.01	-0.115737129019513	0.0373408401227488	0.9040632135957157	0.3781908509933404	-0.1530863340927066	-0.09922675286133564	-0.01402382570668298	0.03403305194307132	0.03403305194313298	0.04984101567662975	-0.01054107988033363	-0.04175660990119679	0.09359056592466361	0.077342036487939	-0.03591732627133146	-0.01382157924607087	0.1219533493986864	-0.1224988823460982	0.05104631087939881	-0.2397915845776858	0.3060085914881397	0.3060085914881383	-0.2059230675003595	0.02206498286926867	0.09287431408437993	-0.09544895332561087	0.1283778546902981	0.02198435307006294	0.01646120715509728	-0.2518874318695702	0.2643766637348688	-0.05191443122637329	-0.08309824653371471	42.74433501977068	22.59963200161691	-12.61528326681135	12.20973417147022	-567.6233232503165	-14.54433621427346	-34.45367961491264	3.375396317000615	-2.207876476008261	-0.7716338497203894	6.645652982567604	-6.030121306403474	2.054304861259453	-13.57564156869621	14.31058513100745	14.31058513100733	-10.28144102451663	1.54948584034983	3.599415311300501	-4.994383154053847	5.090637181570886e-08	-3.062900479538584e-05	3.947372824579417e-05	-7.386844902226016e-06	2.400582410507356e-05	-3.210191208799105e-05	-4.738593610168683e-06
0.02	-0.114945407539243	0.03691649383911619	0.9039061757857426	0.379576923325508	-0.1544081273160613	-0.09870121723480785	-0.01674974293321602	0.03729086170447814	0.037290861704447	0.04761092989590245	-0.01027829269581921	-0.04082757153222236	0.0925386894786098	0.06627861768956282	-0.0443541213755606	-0.01564093484840778	0.1375376081196505	-0.1212075996589787	0.04456379628838721	-0.2705535989630773	0.2922480511140366	0.2922480511140336	-0.2057451341967828	0.02787314792968866	0.07437550144100485	-0.09973346286180833	0.06367802316319578	0.06447829394125722	0.01627853763378046	-0.2686290539181253	0.3140730390874571	-0.06446966234998149	0.003239694678655379	51.1836173174361	26.97967631738367	-13.77582845562804	-3.449222446730945	-683.0803852599877	-17.68435509280867	-34.55930509231095	-5.649545509178874	0.510687862255359	0.3973498366944895	-3.297573814966535	6.25811916727157	-3.176922826298376	7.471200312194924	-16.76087578113472	-16.76087578113472	10.31121199990996	-0.543681272132156	-7.17981807922348	4.14519125777713	-8.896201361282271e-07	-8.173181810587884e-06	1.15363026325646e-05	-1.483220560981408e-06	6.519619550248333e-06	-9.628525365458727e-06	-1.636390218583796e-06
0.03	-0.1145142128537441	0.03649280172923067	0.9037673065520135	0.3808098248585099	-0.1553498837915621	-0.09838412791434165	-0.01916137874683714	0.03950951958709886	0.039509519587124	0.04600193049283558	-0.01002998228273339	-0.04038623544344618	0.09172281712076966	0.02536803393841966	-0.04091467213028173	-0.0123168193890379	0.1101973999414954	-0.07131160828961544	0.02085568656930245	-0.2200365836680941	0.1635267065794976	0.1635267065794992	-0.1228461396056418	0.02242600511073707	0.01900180164004137	-0.06610306621777577	0.06476840648079839	0.05701718114113438	0.01527650568306704	-0.2549600791573576	0.2980969954503724	-0.06142298017122162	-0.004355714218686531	47.96495564780721	25.71460295222859	-12.99679823348984	-4.030304186122723	-657.9911724767294	-16.73650098327833	-34.63381307057941	-2.500995663225281	0.1807449453348969	0.2735895497481486	-2.279253486920287	3.729452242101243	-1.669655382853949	2.60249914138095	-9.120971870742366	-9.120971870741979	6.260744298700514	-0.4517674280605516	-3.949900993346068	2.572565508588859	-4.85290881006537e-07	-3.912798451626845e-06	5.588385999421863e-06	-6.740999240346776e-07	3.114635539156941e-06	-4.728857572246772e-06	-8.043964287306896e-07
